<?xml version="1.0" encoding="UTF-8" standalone="no"?><!DOCTYPE svg PUBLIC "-//W3C//DTD SVG 1.1//EN" "http://www.w3.org/Graphics/SVG/1.1/DTD/svg11.dtd"><svg width="100%" height="100%" viewBox="0 0 806 288" version="1.1" xmlns="http://www.w3.org/2000/svg" xmlns:xlink="http://www.w3.org/1999/xlink" xml:space="preserve" xmlns:serif="http://www.serif.com/" style="fill-rule:evenodd;clip-rule:evenodd;stroke-linejoin:round;stroke-miterlimit:2;"><clipPath id="_clip1"><rect id="Bar-Clif.svg" serif:id="Bar Clif.svg" x="0.527" y="0.63" width="805.286" height="287.213"/></clipPath><g clip-path="url(#_clip1)"><g><rect x="-25.615" y="-285.209" width="859.056" height="859.056" style="fill:#fff;"/><rect x="0.523" y="0.06" width="806.779" height="288.514" style="fill:#fff;"/><path d="M320.234,121.39c-11.481,-9.092 -13.923,-8.633 -27.561,-9.582c-19.413,-1.364 -35.707,12.813 -35.952,36.068c-0.24,23.023 15.777,32.32 33.742,32.841c15.099,0.446 20.929,-3.159 32.405,-13.058l34.802,53.271c-32.44,29.134 -58.271,28.34 -71.191,28.34c-56.69,0 -100.994,-44.036 -100.994,-100.73c0,-58.008 45.646,-106.239 103.895,-104.416c29.918,0.936 43.76,6.213 64.337,23.995l-33.483,53.271Zm56.48,-74.097l72.256,-0l0,135.007l60.647,-0l-0,63.815l-132.903,0l-0,-198.822Zm153.159,-0l72.256,-0l0,198.822l-72.256,0l-0,-198.822Zm105.681,-0l133.158,-0l-0,56.956l-60.38,0l0,20.563l52.999,0l0,51.685l-52.999,-0l0,69.618l-72.778,0l0,-198.822Zm-480.495,0.12l0,28.055c0,14.025 -6.079,30.381 -25.131,30.381c-9.934,0 -17.648,-6.417 -17.648,-16.472l-0.237,0c-0.936,11.686 -8.178,17.881 -19.979,17.881c-10.87,-0 -25.131,-6.543 -25.131,-27.819l-0,-32.026l88.126,-0Zm-69.078,25.835c-0,5.259 2.575,9.934 8.539,9.934c5.958,0 8.409,-4.559 8.409,-10.049l0,-1.872l-16.948,-0l-0,1.987Zm34.829,-0.588c-0,4.911 1.987,9.466 7.714,9.466c5.259,0 7.479,-3.619 7.479,-8.53l-0,-2.335l-15.193,-0l-0,1.399Zm-53.877,84.259l11.333,-1.752l-0,-16.017l-11.333,-1.988l-0,-24.543l88.122,21.156l-0,29.098l-88.122,18.705l-0,-24.659Zm30.033,-4.56l20.452,-2.567c5.495,-0.704 11.106,-1.167 16.597,-1.76l-0,-0.236c-5.491,-0.704 -11.102,-1.279 -16.597,-2.211l-20.452,-3.284l0,10.058Zm-30.033,73.986l36.696,-13.214l-0.236,-0.236c-4.328,0.12 -8.646,0.347 -12.974,0.347l-23.491,0l0,-23.843l88.131,0l0,23.023c0,20.693 -6.079,35.645 -29.338,35.645c-9.698,0 -18.348,-4.203 -22.087,-13.664l-36.697,17.755l0,-25.813l-0.004,0Zm47.334,-11.574c0,6.32 5.495,9.707 11.222,9.707c7.71,-0 10.986,-4.684 10.638,-11.231l-21.739,-0l-0.121,1.524Zm-64.359,-94.005l-0,48.27l-23.964,-23.972l23.964,-24.298Zm686.47,111.44c0,-5.736 4.328,-10.055 9.863,-10.055c5.482,0 9.809,4.319 9.809,10.055c0,5.833 -4.327,10.121 -9.809,10.121c-5.54,-0 -9.863,-4.292 -9.863,-10.121Zm9.859,12.14c6.604,-0 12.238,-5.125 12.238,-12.145c-0,-6.948 -5.634,-12.073 -12.238,-12.073c-6.659,0 -12.301,5.125 -12.301,12.073c0.005,7.02 5.642,12.145 12.301,12.145Zm-2.559,-11.187l2.438,0l3.682,6.057l2.375,0l-3.98,-6.146c2.046,-0.263 3.619,-1.35 3.619,-3.846c-0,-2.759 -1.636,-3.971 -4.925,-3.971l-5.325,0l-0,13.963l2.116,0l0,-6.057Zm0,-1.782l0,-4.337l2.888,0c1.471,0 3.04,0.33 3.04,2.055c-0,2.148 -1.6,2.282 -3.396,2.282l-2.532,-0Z"/></g></g></svg>