<?xml version="1.0" encoding="utf-8"?>
<!-- Generator: Adobe Illustrator 25.0.0, SVG Export Plug-In . SVG Version: 6.00 Build 0)  -->
<svg version="1.1" id="katman_1" xmlns="http://www.w3.org/2000/svg" xmlns:xlink="http://www.w3.org/1999/xlink" x="0px" y="0px"
	 viewBox="0 0 2500 2500" style="enable-background:new 0 0 2500 2500;" xml:space="preserve">
<style type="text/css">
	.st0{fill-rule:evenodd;clip-rule:evenodd;}
</style>
<g>
	<path class="st0" d="M559.4,1247.7h-13.8c-24.6,0-44.7,18.5-44.7,43.1c0,20,6.2,43.1,32.3,43.1c23.1,0,27.7-18.5,27.7-37v-46.2
		C561,1250.8,562.5,1247.7,559.4,1247.7L559.4,1247.7z M1261.1,1472.5h-48.5c-34.8-4.2-65-17.4-65-49.3c0-23.1,26.2-40,47.7-43.1
		c0,0,6.2-1.5,0-1.5c-7.7-1.6-49.3-4.6-63.1-1.6c0,0-3.1,0-4.6-3.1c-1.5-3.1-9.2-24.6-10.8-26.2c-1.5-3.1,1.5-4.6,1.5-4.6
		c30.8-4.6,58.5-20,70.8-24.6c7.7-1.5,0-3.1,0-3.1c-43.1-7.7-86.2-37-86.2-87.8c0-72.4,60.1-104.7,117-104.7
		c26.2,0,41.6,4.6,55.4,6.2c0,0,1.5,1.5,3.1-1.5c0-4.6,4.6-16.9,4.6-16.9c6.2-18.5,15.4-26.2,43.1-26.2c6.2,0,12.3,0,16.9,1.5
		c0,0,3.1-1.5,3.1,3.1c-1.6,1.5-10.8,38.5-10.8,40c-1.5,4.6-3.1,1.5-3.1,1.5c-4.6-3.1-6.2-4.6-16.9-3.1c-6.2,0-9.2,4.6-9.2,10.8
		c0,10.8,49.3,26.2,49.3,84.7c0,78.5-72.4,95.5-135.5,110.9c0,0-6.2,1.5,0,1.5c41.6,4.6,127.8,15.4,127.8,69.3
		C1347.8,1450.1,1297.1,1467.6,1261.1,1472.5L1261.1,1472.5z M658,1347.8h12.3c3.1,0,3.1,3.1,3.1,3.1v24.6c0,4.6-4.6,3.1-4.6,3.1
		h-98.5c0,0-1.5,0-1.5-3.1c-1.5-6.2-4.6-12.3-4.6-16.9c-1.5-6.2-4.6,0-4.6,0c-20,15.4-43.1,27.7-70.8,27.7
		c-46.2,0-81.6-29.2-81.6-77c0-58.5,37-90.8,83.1-90.8l70.8-3.1v-3.1v-7.7c0-20-10.8-29.3-33.9-29.3c-29.3,0-43.1,10.8-57,27.7
		c0,0,0,1.5-3.1,1.5c-3.1-1.5-27.7-10.8-27.7-10.8s-3.1,0-1.5-3.1c1.5-3.1,32.3-77,32.3-77s0-3.1,1.5-1.5c4.6,1.5,23.1,7.7,27.7,7.7
		c3.1,1.5,1.5,4.6,1.5,4.6l-3.1,6.2c-1.5,6.2,1.5,3.1,1.5,3.1c20-7.7,40-10.8,60.1-10.8c58.5,0,97,24.6,97,84.7v135.5
		C656.4,1343.2,656.4,1347.8,658,1347.8L658,1347.8z M664.1,1141.4c40-10.8,73.9-37,90.8-73.9c0,0,0-1.5,3.1-1.5s23.1,4.6,26.2,4.6
		c3.1,1.5,1.5,3.1,1.5,3.1c-1.5,12.3-3.1,26.2-3.1,37v18.5c0,3.1,3.1,1.5,3.1,1.5h41.6c3.1,0,1.5,3.1,1.5,3.1s-6.2,30.8-6.2,33.9
		c-1.5,3.1-3.1,3.1-3.1,3.1h-33.9c-3.1,0-3.1,1.5-3.1,1.5v143.2c0,16.9,13.9,20,21.6,20c7.7,0,9.2,0,15.4-3.1c0,0,3.1-3.1,3.1,0
		c1.5,3.1,9.2,23.1,10.8,26.2c1.5,1.5-1.5,3.1-1.5,3.1c-32.3,23.1-35.4,24.6-78.5,24.6c-47.7,0-64.7-23.1-64.7-66.2v-147.8
		c0,0,0-1.5-3.1-1.5h-21.6c0,0-1.5,0-1.5-3.1v-23.1C662.6,1143,664.1,1141.4,664.1,1141.4L664.1,1141.4z M1366.2,1253.9
		c0-80.1,63.1-130.9,146.3-130.9c83.1,0,147.8,50.8,147.8,130.9c0,83.1-64.7,132.4-147.8,132.4
		C1429.4,1386.3,1366.2,1337,1366.2,1253.9z M1461.7,1218.4c0,37,15.4,129.3,67.7,129.3c27.7,0,35.4-29.3,35.4-57
		c0-37-15.4-129.3-69.3-129.3C1461.7,1161.5,1461.7,1200,1461.7,1218.4z M1952.9,1378.6h-129.3c0,0-1.5,0-1.5-1.6v-26.2
		c0-3.1,3.1-3.1,3.1-3.1h15.4c1.6,0,1.6-1.5,1.6-1.5v-140.1c0-15.4-13.9-21.6-27.7-21.6c-16.9,0-29.2,7.7-41.6,18.5
		c0,0-1.5,1.5-1.5,3.1v140.1c0,0,0,1.5,1.5,1.5h17c0,0,1.5,0,1.5,3.1v26.2c0,1.6-1.5,1.6-1.5,1.6h-129.3c0,0-1.5,1.5-1.5-3.1v-24.6
		c0-3.1,1.5-3.1,1.5-3.1h13.8c3.1,0,1.6-1.5,1.6-1.5v-164.8c0,0,1.5-3.1-1.6-3.1l-13.8,4.6c0,0-1.5,1.5-1.5-1.5v-26.2
		c0-3.1,1.5-1.5,1.5-1.5l109.3-29.3c0,0,3.1-1.5,3.1,1.5v35.4c0,4.6,1.6,1.5,1.6,1.5c26.2-20,52.4-40,87.7-40
		c66.2,0,75.5,44.6,75.5,72.4v150.9c0,0-1.5,1.5,1.5,1.5h13.9c0,0,1.5,0,1.5,3.1v24.6C1954.4,1380.1,1952.9,1378.6,1952.9,1378.6
		L1952.9,1378.6z M2083.8,1124.5l-109.3,29.3c0,0-1.5,0-1.5,3.1v24.6c0,3.1,3.1,1.5,3.1,1.5s7.7-1.5,13.9-3.1c3.1,0,1.5,3.1,1.5,4.6
		v161.7c0,0,1.6,1.5-1.5,1.5h-15.4c0,0-3.1,0-3.1,3.1v26.2c0,3.1,3.1,1.6,3.1,1.6h127.8c3.1,0,1.5-3.1,1.5-3.1v-24.6
		c0-3.1-3.1-3.1-3.1-3.1h-12.3c-3.1,0-1.5-1.5-1.5-1.5V1126C2086.8,1123,2083.8,1124.5,2083.8,1124.5L2083.8,1124.5z M2045.3,1047.5
		c21.6,0,46.2,6.2,46.2,32.3c0,30.8-41.5,43.1-67.7,43.1c-21.6,0-35.4-10.8-35.4-32.3C1988.3,1066,2022.2,1047.5,2045.3,1047.5z
		 M987.5,1247.7h-12.3c-26.2,0-44.6,18.5-44.6,43.1c0,20,6.2,43.1,30.8,43.1s29.3-18.5,29.3-37v-46.2
		C990.6,1250.8,990.6,1247.7,987.5,1247.7L987.5,1247.7z M1087.6,1347.8h10.8c4.6,0,4.6,3.1,4.6,3.1v24.6c0,4.6-4.6,3.1-4.6,3.1
		h-98.5c0,0-1.5,0-3.1-3.1c-1.5-6.2-3.1-12.3-3.1-16.9c-1.5-6.2-4.6,0-4.6,0c-21.6,15.4-43.1,27.7-70.8,27.7
		c-47.7,0-83.1-29.2-83.1-77c0-58.5,38.5-92.4,84.7-92.4l69.3-1.5c0,0,1.5,0,1.5-3.1v-7.7c0-20-10.8-29.3-33.9-29.3
		c-29.3,0-43.1,10.8-57,27.7c0,0-1.5,1.5-3.1,0c-3.1,0-29.3-9.2-29.3-9.2s-1.5,0,0-3.1c1.5-3.1,30.8-77,30.8-77s0-3.1,3.1-1.5
		c3.1,1.5,23.1,7.7,26.2,7.7c3.1,1.5,1.5,4.6,1.5,4.6s0,3.1-1.5,6.2c-3.1,6.2,1.5,3.1,1.5,3.1c20-7.7,40-10.8,60.1-10.8
		c58.5,0,97,24.6,97,84.7v135.5C1086,1343.2,1084.5,1347.8,1087.6,1347.8L1087.6,1347.8z M1189.2,1189.2
		c0,27.7,15.4,103.2,53.9,103.2c20,0,27.7-9.2,27.7-33.9c0-27.7-16.9-103.2-55.4-103.2C1196.9,1155.3,1189.2,1164.5,1189.2,1189.2
		L1189.2,1189.2z M1229.2,1390.9c-4.6,4.6-7.7,21.6-7.7,32.3c0,12.3,6.2,26.2,21.6,26.2c12.3,0,20-6.2,20-18.5
		c0-23.1-13.9-30.8-30.8-41.6C1232.3,1389.4,1230.8,1389.4,1229.2,1390.9z M2256.2,1247.7h-12.3c-26.2,0-44.7,18.5-44.7,43.1
		c0,20,6.2,43.1,30.8,43.1c24.6,0,29.3-18.5,29.3-37v-46.2C2259.3,1250.8,2259.3,1247.7,2256.2,1247.7L2256.2,1247.7z
		 M2356.3,1347.8h12.3c3.1,0,3.1,3.1,3.1,3.1v24.6c0,4.6-4.6,3.1-4.6,3.1h-98.5c0,0-1.5,0-3.1-3.1c-1.5-6.2-3.1-12.3-3.1-16.9
		c-1.5-6.2-4.6,0-4.6,0c-21.6,15.4-43.1,27.7-70.8,27.7c-47.7,0-83.1-29.2-83.1-77c0-58.5,38.5-92.4,84.7-92.4l69.3-1.5
		c0,0,1.6,0,1.6-3.1v-7.7c0-20-10.8-29.3-33.9-29.3c-29.2,0-43.1,10.8-57,27.7c0,0-1.5,1.5-3.1,0c-3.1,0-27.7-9.2-27.7-9.2
		s-3.1,0-1.5-3.1c1.5-3.1,30.8-77,30.8-77s0-3.1,3.1-1.5c3.1,1.5,23.1,7.7,26.2,7.7c3.1,1.5,3.1,4.6,3.1,4.6l-3.1,6.2
		c-3.1,6.2,1.5,3.1,1.5,3.1c20-7.7,40-10.8,60-10.8c58.5,0,97,24.6,97,84.7v135.5C2354.8,1343.2,2354.8,1347.8,2356.3,1347.8
		L2356.3,1347.8z M234.6,1183v124.7c0,21.6,7.7,40,32.3,40c30.8,0,44.7-18.5,44.7-75.5c0-90.8-46.2-95.5-61.6-95.5l-12.3,1.5
		C237.6,1178.4,234.6,1180,234.6,1183L234.6,1183z M236.1,1146.1c23.1-13.9,40-23.1,63.1-23.1c60.1,0,107.8,49.3,107.8,121.6
		c0,70.8-44.6,141.6-121.6,141.6c-15.4,0-35.4-1.5-49.3-9.2c0,0-1.5,0-1.5,1.6v44.6c0,0,0,3.1,3.1,3.1h27.7c0,0,3.1,0,3.1,3.1v24.6
		c0,1.6-3.1,3.1-3.1,3.1H125.2c0,0-4.6,0-4.6-3.1v-0.2v-0.2v-0.3v-0.3v-0.3v-0.3v-0.3v-0.3v-0.3v-0.4v-0.4v-0.4v-0.4v-0.4v-0.4v-0.4
		v-0.4v-0.4v-0.4v-0.4v-0.4v-0.4v-0.5v-0.4v-0.5v-0.4v-0.5v-0.4v-0.5v-0.5v-0.5v-0.4v-0.5v-0.5v-0.5v-0.4v-0.5v-0.5v-0.4v-0.4v-0.4
		v-0.4v-0.4v-0.4v-0.4v-0.4v-0.4v-0.4v-0.4v-0.4v-0.4v-0.4v-0.4v-0.4v-0.4v-0.3v-0.3v-0.3v-0.3v-0.3v-0.3v-0.2v-0.2v-0.2
		c0-3.1,3.1-3.1,3.1-3.1H136c3.1,0,3.1-3.1,3.1-3.1v-241.7c0-3.1-3.1-1.5-3.1-1.5l-12.3,3.1c0,0-3.1,0-3.1-3.1v-0.2v-0.2v-0.2v-0.2
		v-0.2v-0.3v-0.3v-0.3v-0.3v-0.3v-0.4v-0.4v-0.4v-0.4v-0.4v-0.4v-0.4v-0.4v-0.4v-0.4v-0.5v-0.5v-0.5v-0.5v-0.5v-0.5v-0.5v-0.5v-0.5
		v-0.5v-0.5v-0.5v-0.5v-0.5v-0.5v-0.5v-0.5v-0.5v-0.5v-0.5v-0.5v-0.5v-0.5v-0.5v-0.5v-0.4v-0.4v-0.4v-0.4v-0.4v-0.4v-0.4v-0.4v-0.3
		v-0.3v-0.3v-0.3v-0.3v-0.3v-0.2v-0.2v-0.2v-0.2v-0.2c0-3.1,3.1-3.1,3.1-3.1l107.8-27.7c0,0,3.1-1.5,3.1,1.5v18.5
		C234.6,1147.6,236.1,1146.1,236.1,1146.1L236.1,1146.1z M2311.6,1061.4c0-18.5,15.4-33.9,33.9-33.9c18.5,0,33.9,15.4,33.9,33.9
		c0,20-15.4,35.4-33.9,35.4C2327,1096.8,2311.6,1081.4,2311.6,1061.4z M2374.8,1061.4c0-15.4-12.3-29.3-29.3-29.3
		s-30.8,13.9-30.8,29.3c0,16.9,13.9,30.8,30.8,30.8S2374.8,1078.3,2374.8,1061.4z M2362.4,1081.4h-6.2l-10.8-18.5h-7.7v18.5h-4.6
		v-38.5h15.4c3.1,0,7.7,0,9.2,1.5c3.1,1.5,4.6,6.2,4.6,9.2c0,6.2-4.6,9.2-12.3,9.2L2362.4,1081.4L2362.4,1081.4z M2344,1059.8
		c6.2,0,13.9,1.5,13.9-6.2c0-6.2-4.6-7.7-9.2-7.7h-10.8v13.9H2344L2344,1059.8z"/>
</g>
</svg>
