<?xml version="1.0" encoding="utf-8"?>
<!-- Generator: Adobe Illustrator 19.2.1, SVG Export Plug-In . SVG Version: 6.00 Build 0)  -->
<svg version="1.1" id="layer" xmlns="http://www.w3.org/2000/svg" xmlns:xlink="http://www.w3.org/1999/xlink" x="0px" y="0px"
	 viewBox="0 0 652 652" style="enable-background:new 0 0 652 652;" xml:space="preserve">
<style type="text/css">
	.st0{fill:#231815;}
</style>
<polygon class="st0" points="143.3,240.1 110,295.7 76.8,240.1 20.2,240.1 84.4,335.9 84.5,405 135.5,405 135.5,335.9 199.6,240.1 
	"/>
<polygon class="st0" points="211.1,240.1 211.2,405 350.1,405 350.1,364.9 262.2,364.9 262.2,341.4 336.8,341.4 336.8,304.2 
	262.2,304.2 262.2,280.7 347.7,280.7 347.7,240.1 "/>
<polygon class="st0" points="367.1,240.1 367.1,280.8 419.1,280.8 419.1,405 470,405 470,280.7 522,280.7 522,240.1 "/>
<polygon class="st0" points="540.4,240.1 540.4,405 591.5,405 591.4,240.1 "/>
<g>
	<path class="st0" d="M598.5,248c0.6-1.3,1.4-2.5,2.5-3.6c1.1-1,2.3-1.8,3.6-2.4c1.4-0.6,2.8-0.9,4.4-0.9c1.6,0,3,0.2,4.4,0.8
		c1.4,0.5,2.5,1.3,3.6,2.3c1,1,1.8,2.1,2.4,3.5c0.6,1.3,0.9,2.8,0.9,4.4c0,1.6-0.3,3.1-0.9,4.5c-0.6,1.4-1.4,2.6-2.5,3.6
		c-1,1-2.2,1.8-3.6,2.4c-1.4,0.6-2.8,0.9-4.4,0.9c-1.5,0-3-0.2-4.4-0.8c-1.4-0.5-2.6-1.3-3.6-2.3c-1-1-1.8-2.2-2.4-3.5
		c-0.6-1.3-0.9-2.8-0.9-4.4C597.6,250.8,597.9,249.4,598.5,248 M600.3,256.2c0.5,1.1,1.1,2.1,1.9,3c0.8,0.8,1.8,1.5,2.9,2
		c1.1,0.5,2.4,0.7,3.7,0.6c1.3,0,2.5-0.3,3.6-0.8c1.2-0.5,2.1-1.2,3-2.1c0.8-0.9,1.5-1.9,2-3.1c0.5-1.2,0.7-2.4,0.7-3.8
		c0-1.3-0.2-2.6-0.7-3.7c-0.5-1.1-1.1-2.1-1.9-3c-0.8-0.8-1.8-1.5-3-1.9c-1.1-0.4-2.3-0.7-3.6-0.6c-1.3,0-2.5,0.3-3.7,0.8
		c-1.1,0.5-2.1,1.2-3,2c-0.8,0.9-1.5,1.9-2,3c-0.5,1.2-0.7,2.4-0.7,3.7C599.6,253.7,599.8,255,600.3,256.2 M609.7,245.7
		c1.5,0,2.7,0.3,3.5,0.9c0.7,0.6,1.1,1.5,1.1,2.8c0,1.2-0.4,2-1,2.6c-0.7,0.6-1.5,0.9-2.5,1l3.7,5.7l-2.2,0.1l-3.6-5.5l-2.2,0l0,5.6
		l-2.1,0l0.1-13L609.7,245.7z M608.7,251.5c0.5,0,0.9,0,1.3-0.1c0.4,0,0.8-0.1,1.1-0.3c0.3-0.2,0.6-0.4,0.8-0.7
		c0.2-0.3,0.3-0.7,0.3-1.2c0-0.4-0.1-0.8-0.3-1c-0.2-0.3-0.4-0.4-0.7-0.6c-0.3-0.1-0.6-0.2-0.9-0.3c-0.4,0-0.7-0.1-1,0l-2.7,0l0,4.1
		L608.7,251.5z"/>
</g>
</svg>
