<?xml version="1.0" encoding="UTF-8" standalone="no"?><!DOCTYPE svg PUBLIC "-//W3C//DTD SVG 1.1//EN" "http://www.w3.org/Graphics/SVG/1.1/DTD/svg11.dtd"><svg width="100%" height="100%" viewBox="0 0 5692 4267" version="1.1" xmlns="http://www.w3.org/2000/svg" xmlns:xlink="http://www.w3.org/1999/xlink" xml:space="preserve" xmlns:serif="http://www.serif.com/" style="fill-rule:evenodd;clip-rule:evenodd;stroke-linejoin:round;stroke-miterlimit:2;"><rect id="Landing" x="0" y="0.333" width="5691.67" height="4266.67" style="fill:none;"/><clipPath id="_clip1"><rect x="0" y="0.333" width="5691.67" height="4266.67"/></clipPath><g clip-path="url(#_clip1)"><rect x="0" y="0.333" width="5691.67" height="4266.67" style="fill:url(#_Linear2);"/><path d="M14.492,4130.62c42.801,-32.468 164.795,-11.574 242.314,-18.116c74.287,-6.269 154.225,-18.116 222.799,-21.135c62.868,-2.768 135.523,5.032 188.648,3.019c43.443,-1.646 86.65,-15.537 130.101,-15.096c49.602,0.503 120.073,16.103 167.506,18.116c39.036,1.656 78.814,8.264 117.092,-6.039c43.096,-16.102 91.764,-83.033 141.485,-90.578c56.378,-8.554 148.533,27.677 196.779,39.251c31.113,7.463 63.425,38.747 92.698,30.192c29.272,-8.554 51.999,-72.957 82.939,-81.52c43.639,-12.077 123.326,10.568 178.89,9.058c51.596,-1.402 116.821,-26.67 154.496,-18.115c26.715,6.066 44.666,67.33 71.556,69.443c70.472,5.535 266.979,-30.696 351.274,-36.232c51.47,-3.379 102.995,3.02 154.496,3.02c53.667,-0 111.686,-0.41 167.506,-3.02c75.35,-3.522 199.489,-16.102 284.597,-18.115c75.353,-1.782 151.786,0.503 226.052,6.038c73.286,5.463 155.309,17.11 219.547,27.174c55.416,8.682 110.286,30.422 165.879,33.212c70.201,3.522 190.816,-6.039 255.325,-12.077c44.067,-4.125 95.679,-30.193 131.728,-24.154c30.079,5.038 60.714,58.372 84.566,60.385c21.334,1.8 37.381,-43.007 58.545,-48.308c34.152,-8.555 97.576,-3.935 146.365,-3.02c53.667,1.007 126.849,1.007 175.637,9.058c39.506,6.52 77.484,35.406 117.092,39.25c41.469,4.026 87.737,-14.287 131.727,-15.096c54.752,-1.006 141.215,9.561 196.779,9.058c45.587,-0.413 91.031,-13.927 136.607,-12.077c49.601,2.013 113.297,20.128 161.001,24.154c41.698,3.519 83.483,-0.507 125.223,-0c82.939,1.006 305.761,-29.766 372.416,6.038c37.071,19.914 66.113,208.414 27.51,208.788c-958.026,9.28 -4745.47,32.89 -5691.67,4.131c-32.085,-0.975 -15.213,-154.154 14.492,-176.687Z" style="fill:#cdd0d7;"/><g><path d="M3006.62,4776.07c7.151,-20.247 50.67,-67.03 87.532,-84.36c39.475,-18.559 106.125,-17.997 149.319,-26.995c36.921,-7.692 79.808,-25.308 109.843,-26.995c24.105,-1.354 46.247,17.894 70.369,16.872c33.182,-1.406 90.964,-14.342 128.723,-25.308c33.932,-9.856 63.143,-33.628 97.829,-40.493c42.622,-8.436 112.99,-7.311 157.901,-10.123c37.181,-2.328 74.384,-4.329 111.559,-6.749c43.194,-2.812 98.309,-8.543 147.603,-10.123c52.633,-1.687 115.278,3.655 168.198,-0c50.202,-3.468 104.981,-14.623 149.319,-21.934c39.061,-6.441 78.57,-11.426 116.709,-21.933c44.91,-12.373 109.843,-42.461 152.751,-52.303c34.058,-7.813 70.906,2.122 104.695,-6.749c46.054,-12.092 113.276,-50.616 171.63,-65.801c58.113,-15.122 120.428,-15.466 178.496,-25.308c56.942,-9.651 114.135,-19.403 169.915,-33.744c55.78,-14.341 118.425,-39.93 164.765,-52.303c37.139,-9.916 74.862,-19.652 113.276,-21.934c41.316,-2.454 128.289,-36.527 134.617,7.209c18.307,126.54 20.833,626.129 -24.773,752.03c-27.831,76.83 -165.924,1.489 -248.865,3.375c-98.973,2.249 -255.729,9.842 -344.977,10.123c-63.568,0.2 -127.193,-2.892 -190.51,-8.436c-70.655,-6.187 -163.336,-17.435 -233.418,-28.683c-62.9,-10.095 -123.859,-30.867 -187.078,-38.805c-78.378,-9.842 -201.38,-12.373 -283.19,-20.246c-69.495,-6.689 -138.241,-19.709 -207.673,-26.996c-80.381,-8.436 -199.95,-16.028 -274.609,-23.62c-57.95,-5.893 -115.506,-15.092 -173.347,-21.934c-68.939,-8.155 -161.619,-18.559 -240.283,-26.995c-77.19,-8.278 -185.648,-13.498 -231.702,-23.621c-19.015,-4.18 -51.015,-19.023 -44.624,-37.118Z" style="fill:#375f78;"/><path d="M119.521,4474.07c21.09,-26.433 124.29,-73.394 188.966,-99.545c64.027,-25.889 131.273,-44.302 199.089,-57.365c68.613,-13.216 141.98,-12.465 212.587,-21.933c73.393,-9.842 163.939,-36.838 227.772,-37.119c53.071,-0.234 111.636,27.839 155.222,35.431c35.063,6.108 70.878,6.582 106.293,10.124c39.368,3.936 88.859,11.248 129.914,13.497c38.748,2.123 77.618,-0.723 116.417,0c45.273,0.844 121.197,4.781 155.222,5.062c16.348,0.135 34.352,4.026 48.929,-3.375c54.834,-27.838 219.617,-136.663 280.074,-163.658c25.169,-11.238 55.534,-3.132 82.673,1.687c30.089,5.343 65.869,18.402 97.858,30.37c41.336,15.466 101.32,38.911 150.16,62.426c53.147,25.589 118.385,61.583 168.72,91.109c45.615,26.757 95.045,62.145 133.288,86.047c31.653,19.783 88.016,43.586 96.171,57.365c8.154,13.778 -29.813,21.386 -47.242,25.308c-22.496,5.061 -71.987,-3.656 -87.734,5.061c-13.917,7.704 8.239,41.912 -6.749,47.242c-26.095,9.279 -99.806,7.871 -149.823,8.436c-323.661,3.655 -1465.05,11.248 -1792.14,13.497c-56.801,0.391 -130.476,4.5 -170.407,0c-24.596,-2.771 -44.988,-21.737 -69.175,-26.995c-38.805,-8.436 -125.977,-9.842 -163.658,-23.621c-26.902,-9.837 -80.291,-36.661 -62.426,-59.051Z" style="fill:#446c85;"/></g></g><defs><linearGradient id="_Linear2" x1="0" y1="0" x2="1" y2="0" gradientUnits="userSpaceOnUse" gradientTransform="matrix(2.27004e-13,-5518.67,3707.26,3.37921e-13,2845.83,4267)"><stop offset="0" style="stop-color:#eea25c;stop-opacity:0.24"/><stop offset="0.16" style="stop-color:#f5e7da;stop-opacity:0.89"/><stop offset="0.46" style="stop-color:#f6f2ef;stop-opacity:1"/><stop offset="0.72" style="stop-color:#cdd8df;stop-opacity:0.89"/><stop offset="1" style="stop-color:#5e93b2;stop-opacity:0.58"/></linearGradient></defs></svg>